<?xml version="1.0" encoding="utf-8"?>
<!-- Generator: Adobe Illustrator 16.0.0, SVG Export Plug-In . SVG Version: 6.00 Build 0)  -->
<!DOCTYPE svg PUBLIC "-//W3C//DTD SVG 1.1//EN" "http://www.w3.org/Graphics/SVG/1.1/DTD/svg11.dtd">
<svg version="1.1" id="Layer_1" xmlns="http://www.w3.org/2000/svg" xmlns:xlink="http://www.w3.org/1999/xlink" x="0px" y="0px"
	 width="248.93px" height="57.689px" viewBox="0 0 248.93 57.689" enable-background="new 0 0 248.93 57.689" xml:space="preserve">
<g>
	<g>
		<path fill="#FFFFFF" d="M24.614,3.39c-10.084,0-18.26,8.175-18.26,18.26c0,12.948,17.288,27.604,18.26,27.604
			c0,0,18.26-14.654,18.26-27.604C42.873,11.565,34.698,3.39,24.614,3.39z M24.614,36.084c-8.15,0-14.759-6.607-14.759-14.757
			c0-8.15,6.607-14.759,14.759-14.759c8.15,0,14.757,6.607,14.757,14.759C39.371,29.478,32.764,36.084,24.614,36.084z"/>
		<image overflow="visible" width="9" height="27" xlink:href="C73D797AEFE3AFF2.png"  transform="matrix(1 0 0 1 19.9651 7.345)">
		</image>
	</g>
	<g>
		<path fill="#FFFFFF" d="M58.01,16.173h-8.938v-4.524h22.821v4.524h-8.943V45.32H58.01V16.173z"/>
		<path fill="#FFFFFF" d="M69.987,21.349h4.661v2.54h0.098c1.537-1.894,3.55-2.84,6.042-2.84c1.864,0.031,3.49,0.645,4.878,1.84
			l-3.404,4.165c-0.985-0.802-2.008-1.204-3.067-1.204c-1.193,0-2.217,0.401-3.067,1.203c-0.956,0.786-1.449,2.058-1.479,3.815
			V45.32h-4.661V21.349z"/>
		<path fill="#FFFFFF" d="M98.36,43.196h-0.089c-0.432,0.815-1.103,1.416-2.012,1.801c-0.896,0.399-2.132,0.601-3.711,0.601
			c-2.594-0.031-4.591-0.739-5.992-2.125c-1.476-1.354-2.213-3.086-2.213-5.195c0-2.017,0.641-3.687,1.922-5.011
			c1.282-1.354,3.16-2.047,5.635-2.078h6.461v-2.528c0.031-2.119-1.557-3.148-4.765-3.086c-1.163,0-2.08,0.124-2.75,0.37
			c-0.701,0.294-1.253,0.789-1.655,1.485l-3.669-2.89c1.773-2.39,4.389-3.553,7.846-3.491c2.92-0.031,5.252,0.539,6.994,1.709
			c1.743,1.201,2.631,3.264,2.66,6.188V45.32H98.36V43.196z M98.36,35.157h-5.601c-2.72,0.062-4.064,1.023-4.033,2.889
			c0,0.815,0.352,1.51,1.053,2.08c0.673,0.632,1.785,0.948,3.339,0.948c1.957,0.03,3.338-0.208,4.146-0.717
			c0.731-0.508,1.098-1.664,1.098-3.467L98.36,35.157L98.36,35.157z"/>
		<path fill="#FFFFFF" d="M105.141,21.349h4.939l5.453,16.8h0.089l5.43-16.8h4.961l-8.514,23.971h-3.845L105.141,21.349z"/>
		<path fill="#FFFFFF" d="M131.293,35.157c0,1.926,0.537,3.389,1.609,4.391c1,1.017,2.313,1.525,3.94,1.525
			c1.895,0,3.588-0.778,5.08-2.334l3.38,2.979c-2.37,2.616-5.158,3.909-8.363,3.878c-1.222,0-2.415-0.185-3.578-0.555
			c-0.58-0.2-1.146-0.469-1.698-0.809c-0.581-0.292-1.126-0.653-1.633-1.085c-0.983-0.893-1.781-2.14-2.393-3.74
			c-0.671-1.539-1.007-3.541-1.007-6.005c0-2.37,0.291-4.341,0.872-5.911c0.581-1.602,1.326-2.864,2.235-3.788
			c0.925-0.939,1.961-1.616,3.108-2.032c1.133-0.416,2.25-0.624,3.354-0.624c2.652,0.031,4.896,0.932,6.729,2.703
			c1.863,1.802,2.811,4.281,2.84,7.438v3.969H131.293z M141.112,31.188c-0.061-1.872-0.547-3.288-1.458-4.247
			c-0.896-0.913-2.048-1.368-3.451-1.368c-1.405,0-2.557,0.456-3.452,1.368c-0.883,0.959-1.368,2.375-1.457,4.247H141.112z"/>
		<path fill="#FFFFFF" d="M150.062,11.649h4.661v27.505c0,1.095,0.583,1.643,1.749,1.643h1.615v4.523h-2.079
			c-1.699,0-3.1-0.437-4.202-1.312c-1.163-0.889-1.744-2.384-1.744-4.485V11.649z"/>
		<path fill="#FFFFFF" d="M171.268,11.649h20.834v4.802h-15.896v9.958h13.568v4.521h-13.568v14.39h-4.938V11.649z"/>
		<path fill="#FFFFFF" d="M209.402,37.789h-12.368l-2.506,7.53h-5.232l11.854-33.67h4.139l11.854,33.67h-5.212L209.402,37.789z
			 M207.993,33.267l-4.72-14.729h-0.09l-4.719,14.729H207.993z"/>
		<path fill="#FFFFFF" d="M237.541,42.678c-1.924,1.885-4.487,2.857-7.692,2.919c-2.563-0.062-4.703-0.708-6.418-1.939
			c-1.743-1.187-3.011-2.557-3.801-4.111c-0.238-0.508-0.455-0.993-0.648-1.455c-0.179-0.477-0.328-1.078-0.446-1.802
			c-0.225-1.354-0.335-3.957-0.335-7.807c0-3.909,0.11-6.526,0.335-7.852c0.237-1.324,0.604-2.395,1.096-3.21
			c0.79-1.555,2.058-2.94,3.801-4.157c1.714-1.231,3.854-1.863,6.417-1.894c2.594,0.03,4.755,0.662,6.483,1.894
			c1.715,1.216,2.951,2.603,3.712,4.157c0.552,0.815,0.931,1.886,1.14,3.21c0.193,1.324,0.291,3.941,0.291,7.852
			c0,3.495-0.075,5.936-0.224,7.321c-0.193,1.386-0.516,2.463-0.961,3.233l4.307,3.532l-2.935,3.511L237.541,42.678z M229.32,35.913
			l2.937-3.495l3.81,3.125c0.312-1.143,0.472-3.495,0.472-7.06c0-3.316-0.113-5.576-0.337-6.78
			c-0.239-1.143-0.681-2.075-1.321-2.801c-0.493-0.693-1.15-1.272-1.974-1.735c-0.865-0.448-1.889-0.688-3.068-0.717
			c-1.165,0.03-2.166,0.27-3.002,0.717c-0.853,0.463-1.539,1.042-2.062,1.735c-0.643,0.726-1.067,1.659-1.276,2.801
			c-0.238,1.203-0.358,3.463-0.358,6.779c0,3.317,0.12,5.562,0.358,6.734c0.209,1.173,0.635,2.122,1.276,2.847
			c0.522,0.694,1.21,1.257,2.062,1.689c0.836,0.509,1.837,0.764,3.002,0.764c1.522,0,2.74-0.394,3.651-1.181L229.32,35.913z"/>
	</g>
</g>
</svg>
