<?xml version="1.0" encoding="utf-8"?>
<!-- Generator: Adobe Illustrator 16.0.0, SVG Export Plug-In . SVG Version: 6.00 Build 0)  -->
<!DOCTYPE svg PUBLIC "-//W3C//DTD SVG 1.1//EN" "http://www.w3.org/Graphics/SVG/1.1/DTD/svg11.dtd">
<svg version="1.1" id="Layer_1" xmlns="http://www.w3.org/2000/svg" xmlns:xlink="http://www.w3.org/1999/xlink" x="0px" y="0px"
	 width="248.93px" height="57.69px" viewBox="0 0 248.93 57.69" enable-background="new 0 0 248.93 57.69" xml:space="preserve">
<g>
	<g>
		<path fill="#FFFFFF" d="M24.745,3.39c-10.084,0-18.259,8.175-18.259,18.26c0,12.948,17.288,27.603,18.259,27.603
			c0,0,18.26-14.654,18.26-27.603C43.004,11.565,34.829,3.39,24.745,3.39z M24.745,36.084c-8.15,0-14.758-6.607-14.758-14.757
			S16.594,6.569,24.745,6.569c8.151,0,14.757,6.607,14.757,14.758S32.896,36.084,24.745,36.084z"/>
		
			<image overflow="visible" width="33" height="113" xlink:href="DB86243E654B5C02.png"  transform="matrix(0.24 0 0 0.24 20.8486 7.8306)">
		</image>
	</g>
	<g>
		<path fill="#FFFFFF" d="M58.01,16.173h-8.938v-4.524h22.821v4.524h-8.944V45.32H58.01V16.173z"/>
		<path fill="#FFFFFF" d="M69.987,21.349h4.661v2.54h0.097c1.537-1.894,3.55-2.84,6.042-2.84c1.865,0.031,3.491,0.645,4.878,1.84
			l-3.404,4.165c-0.985-0.802-2.008-1.204-3.067-1.204c-1.194,0-2.217,0.401-3.068,1.203c-0.956,0.786-1.449,2.058-1.478,3.815
			V45.32h-4.661V21.349z"/>
		<path fill="#FFFFFF" d="M98.36,43.196h-0.089c-0.432,0.815-1.103,1.416-2.012,1.8c-0.895,0.4-2.132,0.601-3.711,0.601
			c-2.594-0.031-4.591-0.739-5.992-2.125c-1.476-1.354-2.213-3.086-2.213-5.195c0-2.017,0.641-3.687,1.922-5.011
			c1.282-1.354,3.16-2.047,5.635-2.078h6.461v-2.529c0.031-2.119-1.557-3.148-4.765-3.086c-1.163,0-2.08,0.124-2.75,0.371
			c-0.701,0.294-1.253,0.789-1.655,1.485l-3.669-2.89c1.773-2.389,4.388-3.552,7.845-3.491c2.92-0.031,5.252,0.539,6.995,1.709
			c1.743,1.201,2.63,3.264,2.66,6.189V45.32H98.36V43.196z M98.36,35.157h-5.601c-2.72,0.062-4.064,1.024-4.033,2.889
			c0,0.816,0.351,1.51,1.053,2.08c0.672,0.632,1.785,0.948,3.338,0.948c1.957,0.031,3.338-0.208,4.146-0.716
			c0.731-0.508,1.098-1.664,1.098-3.467V35.157z"/>
		<path fill="#FFFFFF" d="M105.141,21.349h4.939l5.453,16.8h0.089l5.43-16.8h4.961l-8.514,23.971h-3.844L105.141,21.349z"/>
		<path fill="#FFFFFF" d="M131.293,35.157c0,1.926,0.537,3.389,1.61,4.391c1,1.017,2.313,1.525,3.94,1.525
			c1.895,0,3.588-0.778,5.08-2.334l3.38,2.98c-2.37,2.616-5.158,3.909-8.363,3.878c-1.222,0-2.415-0.185-3.578-0.555
			c-0.581-0.2-1.147-0.469-1.699-0.808c-0.581-0.292-1.126-0.654-1.632-1.085c-0.984-0.893-1.782-2.14-2.393-3.741
			c-0.671-1.539-1.007-3.541-1.007-6.004c0-2.371,0.291-4.341,0.872-5.912c0.581-1.601,1.326-2.864,2.236-3.788
			c0.924-0.939,1.96-1.616,3.108-2.032c1.133-0.416,2.25-0.624,3.354-0.624c2.653,0.031,4.896,0.932,6.73,2.703
			c1.863,1.802,2.81,4.281,2.84,7.438v3.968H131.293z M141.112,31.188c-0.061-1.872-0.547-3.288-1.458-4.247
			c-0.896-0.913-2.048-1.369-3.452-1.369c-1.405,0-2.556,0.457-3.452,1.369c-0.883,0.959-1.368,2.375-1.457,4.247H141.112z"/>
		<path fill="#FFFFFF" d="M150.062,11.649h4.661v27.505c0,1.094,0.583,1.642,1.749,1.642h1.615v4.524h-2.079
			c-1.699,0-3.1-0.437-4.202-1.312c-1.163-0.889-1.744-2.384-1.744-4.485V11.649z"/>
		<path fill="#FFFFFF" d="M171.268,11.649h20.834v4.801h-15.896v9.958h13.569v4.522h-13.569v14.39h-4.938V11.649z"/>
		<path fill="#FFFFFF" d="M209.402,37.789h-12.369l-2.505,7.531h-5.233l11.854-33.67h4.138l11.854,33.67h-5.212L209.402,37.789z
			 M207.993,33.267l-4.719-14.73h-0.09l-4.719,14.73H207.993z"/>
		<path fill="#FFFFFF" d="M237.541,42.678c-1.924,1.885-4.487,2.857-7.692,2.919c-2.564-0.062-4.703-0.708-6.418-1.94
			c-1.743-1.186-3.011-2.556-3.801-4.111c-0.238-0.508-0.455-0.993-0.648-1.455c-0.179-0.477-0.328-1.078-0.447-1.802
			c-0.224-1.354-0.335-3.957-0.335-7.806c0-3.91,0.111-6.527,0.335-7.852c0.238-1.324,0.604-2.394,1.096-3.21
			c0.79-1.555,2.058-2.94,3.801-4.157c1.714-1.232,3.854-1.863,6.417-1.894c2.594,0.031,4.755,0.662,6.483,1.894
			c1.715,1.216,2.951,2.602,3.712,4.157c0.552,0.816,0.931,1.886,1.14,3.21c0.193,1.324,0.291,3.941,0.291,7.852
			c0,3.495-0.075,5.935-0.224,7.321c-0.193,1.386-0.515,2.463-0.961,3.233l4.307,3.533l-2.935,3.51L237.541,42.678z M229.32,35.913
			l2.936-3.495l3.81,3.125c0.312-1.142,0.471-3.495,0.471-7.059c0-3.317-0.113-5.577-0.337-6.781c-0.239-1.142-0.68-2.075-1.321-2.8
			c-0.493-0.694-1.15-1.273-1.973-1.736c-0.866-0.448-1.889-0.687-3.069-0.717c-1.165,0.031-2.166,0.27-3.002,0.717
			c-0.852,0.463-1.539,1.042-2.062,1.736c-0.643,0.725-1.068,1.659-1.277,2.8c-0.238,1.203-0.358,3.463-0.358,6.78
			c0,3.317,0.12,5.562,0.358,6.734c0.209,1.173,0.635,2.122,1.277,2.847c0.522,0.694,1.21,1.257,2.062,1.689
			c0.836,0.509,1.837,0.764,3.002,0.764c1.523,0,2.74-0.394,3.652-1.181L229.32,35.913z"/>
	</g>
</g>
</svg>
